<?xml version="1.0" encoding="utf-8"?>
<!-- Generator: Adobe Illustrator 28.1.0, SVG Export Plug-In . SVG Version: 6.00 Build 0)  -->
<svg version="1.1" id="Ebene_1" xmlns="http://www.w3.org/2000/svg" xmlns:xlink="http://www.w3.org/1999/xlink" x="0px" y="0px"
	 viewBox="0 0 97.9 98.2" style="enable-background:new 0 0 97.9 98.2;" xml:space="preserve">
<style type="text/css">
	.st0{fill:#C10B25;}
	.st1{fill:#FFFFFF;}
</style>
<g>
	<polygon class="st0" points="0,0.3 0,98.5 98.2,98.5 98.2,0.3 	"/>
	<g>
		<path class="st1" d="M15.8,61.1c0,3.5-0.2,8-2,8c-1.1,0-1.3-0.8-1.6-1.6c-0.3-0.8-0.6-1.6-1.8-1.6c-1,0-2,0.8-1.8,1.8
			c0.3,2,2.2,2.7,4.1,2.7c4.9,0,6.5-5,6.5-9.1V39.8c0-1.7,1.1-1.8,2.6-1.9l1-0.1l0.1-0.2v-0.7l-0.2-0.2c-1.5,0-3.6,0.2-5.4,0.2
			c-2.5,0-3.6-0.2-4.6-0.2c-0.2,0-0.5,0-0.6,0.4v0.6l0.2,0.2c3,0,3.7,0.5,3.7,2.6L15.8,61.1L15.8,61.1z M49.2,54.3
			c0-1.9,0.5-2.1,2.2-2.1h0.4c0.2,0,0.3-0.4,0.3-0.8c0-0.2,0-0.5-0.2-0.5H41.4c-0.3,0-0.4,0.4-0.4,0.8c0,0.4,0.1,0.6,0.3,0.6H44
			c1.5,0,2.5,0.5,2.5,2.4v2.5c0,2.2-2.2,4.1-6.5,4.1c-5.6,0-10.4-5.6-10.4-11.9c0-8.7,6.7-11.8,11-11.8c4.8,0,7,2.8,7.5,5.5
			c0,0.1,0.2,0.1,0.4,0.1c0.2,0,0.8-0.1,0.8-0.3c0-1.6-0.2-4.5-0.3-4.7c-2.2-1.1-4.7-2-8.1-2c-4.2,0-15.4,2.2-15.4,13.9
			c0,5.5,4.6,12.7,15,12.7c1.7,0,5.9-0.5,8.7-2.2L49.2,54.3L49.2,54.3z"/>
		<path class="st1" d="M88.1,36.7h-3.7v14.6c0,4.9-1.5,8.3-6.3,8.3c-4.8,0-6.3-3.4-6.3-8.3V36.7H68v15.1c0,7.2,3.7,11.1,10,11.1
			c6.4,0,10-3.9,10-11.1L88.1,36.7L88.1,36.7z"/>
		<polygon class="st1" points="58.9,18.5 58.9,79.4 60.9,79.4 60.9,18.5 		"/>
	</g>
</g>
</svg>
